<?xml version="1.0" standalone="no"?>
<!DOCTYPE svg PUBLIC "-//W3C//DTD SVG 20010904//EN"
 "http://www.w3.org/TR/2001/REC-SVG-20010904/DTD/svg10.dtd">
<svg version="1.0" xmlns="http://www.w3.org/2000/svg"
 width="24.000000pt" height="24.000000pt" viewBox="0 0 24.000000 24.000000"
 preserveAspectRatio="xMidYMid meet">

<g transform="translate(0.000000,24.000000) scale(0.100000,-0.100000)"
fill="#000000" stroke="none">
<path d="M4 227 c-2 -7 -3 -60 -2 -118 l3 -104 40 -1 c24 -1 29 0 13 3 l-28 4
0 99 0 99 50 4 50 4 -52 -1 -53 -1 -6 -105 -5 -105 -2 112 -2 112 73 4 72 3
-73 2 c-52 1 -74 -2 -78 -11z"/>
<path d="M80 193 c31 -3 40 -8 40 -23 0 -14 -9 -20 -35 -23 l-35 -4 37 1 c34
1 38 4 38 26 0 23 -4 25 -43 26 l-42 1 40 -4z"/>
<path d="M106 115 c-9 -26 -7 -32 5 -12 6 10 9 21 6 23 -2 3 -7 -2 -11 -11z"/>
<path d="M168 73 c61 -4 62 -4 62 -33 0 -29 0 -29 -67 -33 l-68 -4 70 1 70 1
0 35 0 35 -65 1 -65 0 63 -3z"/>
<path d="M114 49 c-11 -19 10 -29 49 -22 44 7 48 19 8 25 -21 3 -28 1 -24 -9
3 -8 -2 -13 -12 -13 -11 0 -15 5 -11 15 6 17 0 20 -10 4z"/>
</g>
</svg>
